<svg xmlns="http://www.w3.org/2000/svg" xmlns:xlink="http://www.w3.org/1999/xlink" viewBox="0 0 500 500"><defs><style>.cls-1{fill:none;}.cls-2{fill:url(#linear-gradient);}.cls-3{fill:url(#linear-gradient-2);}.cls-4{fill:url(#linear-gradient-3);}.cls-5{fill:url(#linear-gradient-4);}.cls-6{fill:url(#linear-gradient-5);}.cls-7{fill:url(#linear-gradient-6);}.cls-8{fill:url(#linear-gradient-7);}</style><linearGradient id="linear-gradient" x1="-14.57" y1="103.9" x2="645.9" y2="478.5" gradientUnits="userSpaceOnUse"><stop offset="0" stop-color="#0036ff"/><stop offset="0.2" stop-color="#004cff"/><stop offset="0.52" stop-color="#006bff"/><stop offset="0.8" stop-color="#007dff"/><stop offset="1" stop-color="#0084ff"/></linearGradient><linearGradient id="linear-gradient-2" x1="37.64" y1="4.06" x2="709.01" y2="384.84" xlink:href="#linear-gradient"/><linearGradient id="linear-gradient-3" x1="-74.97" y1="198.34" x2="596.4" y2="579.12" xlink:href="#linear-gradient"/><linearGradient id="linear-gradient-4" x1="37.07" y1="0.76" x2="708.44" y2="381.54" xlink:href="#linear-gradient"/><linearGradient id="linear-gradient-5" x1="-21.58" y1="101.86" x2="649.79" y2="482.64" xlink:href="#linear-gradient"/><linearGradient id="linear-gradient-6" x1="-15.54" y1="100.15" x2="655.83" y2="480.92" xlink:href="#linear-gradient"/><linearGradient id="linear-gradient-7" x1="-75.03" y1="202.83" x2="596.34" y2="583.61" xlink:href="#linear-gradient"/></defs><g id="Layer_2" data-name="Layer 2"><g id="Layer_1-2" data-name="Layer 1"><rect class="cls-1" width="500" height="500"/><path class="cls-2" d="M243.66,390.49a40.83,40.83,0,0,1-20.4-5.45l-86-49.66A40.93,40.93,0,0,1,116.83,300V200.7a40.92,40.92,0,0,1,20.41-35.34l86-49.67a41,41,0,0,1,40.81,0l86,49.67A40.92,40.92,0,0,1,370.5,200.7V300a40.9,40.9,0,0,1-20.41,35.34l-86,49.67A40.83,40.83,0,0,1,243.66,390.49Zm0-258.44a19,19,0,0,0-9.49,2.54l-86,49.66a19.06,19.06,0,0,0-9.49,16.45V300a19,19,0,0,0,9.49,16.45l86,49.67a19,19,0,0,0,19,0l86-49.67a19,19,0,0,0,9.5-16.45V200.7a19,19,0,0,0-9.5-16.45l-86-49.66A19,19,0,0,0,243.66,132.05Z"/><path class="cls-3" d="M274.75,136.37V105.45a4.31,4.31,0,0,0-2.16-3.74L245.83,86.25a4.3,4.3,0,0,0-4.33,0l-26.76,15.46a4.31,4.31,0,0,0-2.16,3.74v30.92a4.33,4.33,0,0,0,2.16,3.75l26.76,15.46a4.35,4.35,0,0,0,4.33,0l26.76-15.46A4.33,4.33,0,0,0,274.75,136.37Z"/><path class="cls-4" d="M274.75,394.52V363.6a4.33,4.33,0,0,0-2.16-3.75l-26.76-15.46a4.35,4.35,0,0,0-4.33,0l-26.76,15.46a4.33,4.33,0,0,0-2.16,3.75v30.92a4.3,4.3,0,0,0,2.16,3.74l26.76,15.46a4.3,4.3,0,0,0,4.33,0l26.76-15.46A4.3,4.3,0,0,0,274.75,394.52Z"/><path class="cls-5" d="M381.1,194.19V170.05a3.4,3.4,0,0,0-1.69-2.93l-20.89-12.07a3.4,3.4,0,0,0-3.38,0l-20.89,12.07a3.38,3.38,0,0,0-1.69,2.93v24.14a3.36,3.36,0,0,0,1.69,2.92l20.89,12.07a3.4,3.4,0,0,0,3.38,0l20.89-12.07A3.39,3.39,0,0,0,381.1,194.19Z"/><path class="cls-6" d="M383.52,329.93V305.79a3.38,3.38,0,0,0-1.69-2.93l-20.89-12.07a3.38,3.38,0,0,0-3.37,0l-20.9,12.07a3.4,3.4,0,0,0-1.69,2.93v24.14a3.4,3.4,0,0,0,1.69,2.92l20.9,12.07a3.38,3.38,0,0,0,3.37,0l20.89-12.07A3.38,3.38,0,0,0,383.52,329.93Z"/><path class="cls-7" d="M153.25,194.19V170.05a3.38,3.38,0,0,0-1.69-2.93l-20.89-12.07a3.4,3.4,0,0,0-3.38,0L106.4,167.12a3.38,3.38,0,0,0-1.69,2.93v24.14a3.36,3.36,0,0,0,1.69,2.92l20.89,12.07a3.4,3.4,0,0,0,3.38,0l20.89-12.07A3.36,3.36,0,0,0,153.25,194.19Z"/><path class="cls-8" d="M152,329.93V305.79a3.4,3.4,0,0,0-1.69-2.93l-20.89-12.07a3.4,3.4,0,0,0-3.38,0l-20.89,12.07a3.38,3.38,0,0,0-1.69,2.93v24.14a3.38,3.38,0,0,0,1.69,2.92l20.89,12.07a3.4,3.4,0,0,0,3.38,0l20.89-12.07A3.4,3.4,0,0,0,152,329.93Z"/></g></g></svg>