<svg xmlns="http://www.w3.org/2000/svg" xmlns:xlink="http://www.w3.org/1999/xlink" viewBox="0 0 500 500"><defs><style>.cls-1{fill:#fff;}.cls-2{fill:url(#linear-gradient);}.cls-3{fill:url(#linear-gradient-2);}.cls-4{fill:url(#linear-gradient-3);}.cls-5{fill:url(#linear-gradient-4);}.cls-6{fill:url(#linear-gradient-5);}.cls-7{fill:url(#linear-gradient-6);}.cls-8{fill:url(#linear-gradient-7);}</style><linearGradient id="linear-gradient" x1="-94.86" y1="66.58" x2="785.37" y2="565.81" gradientUnits="userSpaceOnUse"><stop offset="0" stop-color="#0036ff"/><stop offset="0.2" stop-color="#004cff"/><stop offset="0.52" stop-color="#006bff"/><stop offset="0.8" stop-color="#007dff"/><stop offset="1" stop-color="#0084ff"/></linearGradient><linearGradient id="linear-gradient-2" x1="-26.58" y1="-67.23" x2="872.4" y2="442.64" xlink:href="#linear-gradient"/><linearGradient id="linear-gradient-3" x1="-177.36" y1="191.29" x2="721.62" y2="701.16" xlink:href="#linear-gradient"/><linearGradient id="linear-gradient-4" x1="-28.05" y1="-72.03" x2="870.93" y2="437.84" xlink:href="#linear-gradient"/><linearGradient id="linear-gradient-5" x1="-106.6" y1="62.49" x2="792.38" y2="572.36" xlink:href="#linear-gradient"/><linearGradient id="linear-gradient-6" x1="-97.06" y1="61.05" x2="801.92" y2="570.92" xlink:href="#linear-gradient"/><linearGradient id="linear-gradient-7" x1="-176.71" y1="197.69" x2="722.27" y2="707.56" xlink:href="#linear-gradient"/></defs><g id="Layer_2" data-name="Layer 2"><g id="Layer_1-2" data-name="Layer 1"><rect class="cls-1" width="500" height="500"/><path class="cls-2" d="M249.3,448.51a54.41,54.41,0,0,1-27.2-7.26L107.46,375.06A54.55,54.55,0,0,1,80.27,328V195.58a54.53,54.53,0,0,1,27.19-47.1L222.1,82.29a54.54,54.54,0,0,1,54.39,0l114.64,66.19a54.52,54.52,0,0,1,27.2,47.1V328a54.53,54.53,0,0,1-27.2,47.1L276.49,441.25A54.37,54.37,0,0,1,249.3,448.51Zm0-344.42a25.24,25.24,0,0,0-12.66,3.38L122,173.66a25.36,25.36,0,0,0-12.66,21.92V328A25.39,25.39,0,0,0,122,349.88l114.64,66.19a25.38,25.38,0,0,0,25.32,0L376.6,349.88A25.39,25.39,0,0,0,389.26,328V195.58a25.39,25.39,0,0,0-12.66-21.93L262,107.47A25.26,25.26,0,0,0,249.3,104.09Z"/><path class="cls-3" d="M290.73,110.68V67.8a4.31,4.31,0,0,0-2.16-3.74L251.46,42.63a4.28,4.28,0,0,0-4.32,0L210,64.06a4.31,4.31,0,0,0-2.16,3.74v42.88a4.31,4.31,0,0,0,2.16,3.74l37.11,21.43a4.28,4.28,0,0,0,4.32,0l37.11-21.43A4.31,4.31,0,0,0,290.73,110.68Z"/><path class="cls-4" d="M290.73,454.71V411.84a4.31,4.31,0,0,0-2.16-3.74l-37.11-21.44a4.33,4.33,0,0,0-4.32,0L210,408.1a4.31,4.31,0,0,0-2.16,3.74v42.87a4.33,4.33,0,0,0,2.16,3.75l37.11,21.43a4.33,4.33,0,0,0,4.32,0l37.11-21.43A4.33,4.33,0,0,0,290.73,454.71Z"/><path class="cls-5" d="M432.46,187.54V154.07a3.39,3.39,0,0,0-1.69-2.92l-29-16.73a3.38,3.38,0,0,0-3.37,0l-29,16.73a3.39,3.39,0,0,0-1.69,2.92v33.47a3.37,3.37,0,0,0,1.69,2.92l29,16.74a3.38,3.38,0,0,0,3.37,0l29-16.74A3.37,3.37,0,0,0,432.46,187.54Z"/><path class="cls-6" d="M435.69,368.44V335a3.38,3.38,0,0,0-1.69-2.93l-29-16.73a3.38,3.38,0,0,0-3.37,0l-29,16.73A3.4,3.4,0,0,0,371,335v33.46a3.4,3.4,0,0,0,1.69,2.93l29,16.73a3.38,3.38,0,0,0,3.37,0l29-16.73A3.38,3.38,0,0,0,435.69,368.44Z"/><path class="cls-7" d="M128.8,187.54V154.07a3.36,3.36,0,0,0-1.69-2.92l-29-16.73a3.4,3.4,0,0,0-3.38,0l-29,16.73a3.38,3.38,0,0,0-1.68,2.92v33.47a3.36,3.36,0,0,0,1.68,2.92l29,16.74a3.4,3.4,0,0,0,3.38,0l29-16.74A3.35,3.35,0,0,0,128.8,187.54Z"/><path class="cls-8" d="M127.19,368.44V335a3.4,3.4,0,0,0-1.69-2.93l-29-16.73a3.4,3.4,0,0,0-3.38,0l-29,16.73A3.38,3.38,0,0,0,62.5,335v33.46a3.38,3.38,0,0,0,1.69,2.93l29,16.73a3.4,3.4,0,0,0,3.38,0l29-16.73A3.4,3.4,0,0,0,127.19,368.44Z"/></g></g></svg>